<?xml version="1.0" standalone="no"?>
<!DOCTYPE svg PUBLIC "-//W3C//DTD SVG 20010904//EN"
 "http://www.w3.org/TR/2001/REC-SVG-20010904/DTD/svg10.dtd">
<svg version="1.0" xmlns="http://www.w3.org/2000/svg"
 width="34.000000pt" height="34.000000pt" viewBox="0 0 34.000000 34.000000"
 preserveAspectRatio="xMidYMid meet">

<g transform="translate(0.000000,34.000000) scale(0.100000,-0.100000)"
fill="#ffecd8" stroke="#901616" stroke-width="9">
<path d="M40 304 c-17 -15 -30 -35 -30 -48 0 -66 61 -164 128 -207 81 -51 150
-51 177 1 14 28 14 31 -4 49 -11 11 -33 27 -49 35 -25 13 -32 13 -49 1 -18
-13 -23 -11 -53 20 -31 31 -32 37 -21 59 11 21 10 28 -14 64 -35 53 -48 57
-85 26z m59 -40 c19 -24 19 -28 5 -50 -15 -23 -14 -25 34 -76 48 -50 51 -52
76 -39 22 12 28 12 51 -3 29 -19 31 -29 10 -46 -20 -17 -72 -6 -121 26 -73 48
-134 163 -104 199 17 21 25 19 49 -11z"/>
</g>
</svg>
