<?xml version="1.0" standalone="no"?>
<!DOCTYPE svg PUBLIC "-//W3C//DTD SVG 20010904//EN"
 "http://www.w3.org/TR/2001/REC-SVG-20010904/DTD/svg10.dtd">
<svg version="1.0" xmlns="http://www.w3.org/2000/svg"
 width="364.000000pt" height="363.000000pt" viewBox="0 0 364.000000 363.000000"
 preserveAspectRatio="xMidYMid meet">

<g transform="translate(0.000000,363.000000) scale(0.100000,-0.100000)"
fill="#000000" stroke="none">
<path d="M1630 3619 c-464 -49 -905 -283 -1199 -634 -188 -225 -301 -444 -371
-720 -78 -309 -80 -582 -5 -881 180 -721 765 -1251 1496 -1358 201 -30 482
-18 690 29 265 59 560 213 777 405 707 625 817 1677 256 2435 -76 104 -230
262 -328 339 -378 295 -854 435 -1316 385z m314 -19 c368 -31 710 -163 981
-378 416 -332 659 -805 682 -1327 41 -944 -656 -1753 -1599 -1856 -127 -14
-381 -6 -503 15 -440 78 -855 334 -1127 694 -252 334 -388 805 -349 1208 85
889 759 1565 1637 1642 139 13 145 13 278 2z"/>
<path d="M1645 3464 c-396 -42 -776 -232 -1045 -522 -205 -221 -339 -479 -411
-790 -26 -112 -37 -429 -20 -554 118 -825 812 -1431 1641 -1430 372 0 718 115
1010 336 117 88 280 262 362 386 183 275 271 540 285 860 36 823 -544 1545
-1364 1695 -85 16 -374 28 -458 19z m479 -44 c363 -71 703 -269 932 -543 278
-331 410 -715 390 -1137 -32 -696 -500 -1289 -1176 -1489 -213 -64 -507 -80
-733 -41 -369 63 -704 248 -944 520 -353 400 -491 927 -377 1440 149 667 691
1167 1374 1266 136 19 394 12 534 -16z"/>
<path d="M1700 2780 c-418 -38 -791 -312 -965 -709 l-43 -96 -48 -8 c-123 -22
-164 -60 -164 -151 0 -99 53 -146 164 -146 81 0 145 23 251 90 121 76 143 76
264 -5 100 -65 176 -88 286 -83 99 4 171 31 274 101 91 63 124 60 244 -20 86
-57 167 -83 262 -83 95 0 176 26 263 84 39 26 85 51 102 58 41 14 94 -1 146
-43 113 -90 290 -128 369 -79 60 37 82 126 49 195 -21 45 -53 64 -127 76 -34
6 -62 11 -63 12 0 1 -26 54 -56 117 -71 146 -160 271 -262 367 -198 186 -439
297 -702 323 -110 11 -122 11 -244 0z m-276 -311 c15 -12 26 -30 26 -45 0 -29
-73 -179 -103 -211 -28 -31 -71 -30 -103 2 -21 21 -24 31 -18 58 9 42 71 166
97 195 26 28 66 28 101 1z m453 -1 c21 -20 23 -30 23 -123 0 -88 -3 -106 -21
-129 -23 -29 -71 -35 -102 -12 -49 37 -49 238 -1 273 27 20 75 16 101 -9z
m434 11 c28 -15 121 -207 113 -233 -8 -30 -42 -56 -73 -56 -37 0 -72 39 -115
130 -47 98 -47 132 -1 158 25 14 51 15 76 1z"/>
<path d="M1000 1646 c-30 -29 -136 -87 -187 -102 -37 -11 -53 -21 -53 -32 0
-33 142 -442 162 -468 44 -55 19 -54 904 -54 896 0 860 -2 904 60 19 27 160
434 160 462 0 10 -24 24 -62 38 -35 12 -95 42 -135 66 -71 42 -72 43 -95 24
-44 -34 -153 -88 -213 -106 -39 -11 -95 -18 -160 -18 -124 0 -209 24 -313 89
-41 25 -79 45 -85 45 -7 0 -25 -9 -42 -21 -118 -80 -219 -112 -355 -112 -133
-1 -204 19 -321 90 -49 29 -90 53 -92 53 -1 0 -9 -6 -17 -14z"/>
</g>
</svg>
