<?xml version="1.0" encoding="UTF-8"?>
<!DOCTYPE svg PUBLIC "-//W3C//DTD SVG 1.1//EN" "http://www.w3.org/Graphics/SVG/1.1/DTD/svg11.dtd">
<svg xmlns="http://www.w3.org/2000/svg" version="1.1" width="455px" height="454px" style="shape-rendering:geometricPrecision; text-rendering:geometricPrecision; image-rendering:optimizeQuality; fill-rule:evenodd; clip-rule:evenodd" xmlns:xlink="http://www.w3.org/1999/xlink">
<g><path style="opacity:0.704" fill="#000000" d="M 209.5,-0.5 C 220.833,-0.5 232.167,-0.5 243.5,-0.5C 337.802,10.721 403.302,60.0543 440,147.5C 468.4,235.172 452.4,313.505 392,382.5C 323.871,448.604 244.037,468.104 152.5,441C 63.6523,406.491 12.6523,341.991 -0.5,247.5C -0.5,233.833 -0.5,220.167 -0.5,206.5C 7.91486,133.809 42.2482,76.9759 102.5,36C 135.404,15.5326 171.07,3.36592 209.5,-0.5 Z M 222.5,2.5 C 316.693,5.64417 385.526,48.6442 429,131.5C 460.86,205.546 456.193,277.213 415,346.5C 359.502,425.144 283.669,458.31 187.5,446C 112.628,430.434 58.128,388.601 24,320.5C -7.75177,247.608 -3.41844,176.942 37,108.5C 81.0695,42.536 142.903,7.20267 222.5,2.5 Z M 169.5,142.5 C 174.828,142.822 178.495,145.489 180.5,150.5C 177.469,158.896 173.635,166.896 169,174.5C 162.806,180.809 157.306,179.976 152.5,172C 155.225,163.827 158.725,155.993 163,148.5C 164.436,145.558 166.603,143.558 169.5,142.5 Z M 224.5,142.5 C 230.067,142.192 233.9,144.525 236,149.5C 236.667,156.833 236.667,164.167 236,171.5C 232.908,179.197 227.908,180.864 221,176.5C 216.772,166.642 216.439,156.642 220,146.5C 221.397,144.93 222.897,143.596 224.5,142.5 Z M 282.5,142.5 C 286.175,142.754 289.009,144.42 291,147.5C 295.781,155.229 299.615,163.396 302.5,172C 297.943,180.315 292.443,181.148 286,174.5C 282.139,168.112 278.806,161.446 276,154.5C 274.286,148.254 276.453,144.254 282.5,142.5 Z"/></g>
<g><path style="opacity:0.695" fill="#150401" d="M 203.5,19.5 C 290.663,14.3465 357.83,48.0132 405,120.5C 436.081,176.31 441.748,234.643 422,295.5C 391.818,372.346 335.985,417.513 254.5,431C 174.168,439.397 109.001,412.23 59,349.5C 21.3928,296.459 10.0594,238.126 25,174.5C 43.7997,108.032 84.9663,61.1987 148.5,34C 166.421,27.1048 184.754,22.2715 203.5,19.5 Z M 169.5,142.5 C 166.603,143.558 164.436,145.558 163,148.5C 158.725,155.993 155.225,163.827 152.5,172C 157.306,179.976 162.806,180.809 169,174.5C 173.635,166.896 177.469,158.896 180.5,150.5C 178.495,145.489 174.828,142.822 169.5,142.5 Z M 224.5,142.5 C 222.897,143.596 221.397,144.93 220,146.5C 216.439,156.642 216.772,166.642 221,176.5C 227.908,180.864 232.908,179.197 236,171.5C 236.667,164.167 236.667,156.833 236,149.5C 233.9,144.525 230.067,142.192 224.5,142.5 Z M 282.5,142.5 C 276.453,144.254 274.286,148.254 276,154.5C 278.806,161.446 282.139,168.112 286,174.5C 292.443,181.148 297.943,180.315 302.5,172C 299.615,163.396 295.781,155.229 291,147.5C 289.009,144.42 286.175,142.754 282.5,142.5 Z"/></g>
<g><path style="opacity:1" fill="#c61b1b" d="M 202.5,22.5 C 270.866,17.4475 329.032,39.1142 377,87.5C 432.616,152.367 445.282,225.034 415,305.5C 384.861,371.837 334.027,412.337 262.5,427C 187.696,438.512 124.53,417.012 73,362.5C 16.8461,294.214 6.17943,219.214 41,137.5C 75.6715,71.9422 129.505,33.6089 202.5,22.5 Z M 169.5,142.5 C 166.603,143.558 164.436,145.558 163,148.5C 158.725,155.993 155.225,163.827 152.5,172C 157.306,179.976 162.806,180.809 169,174.5C 173.635,166.896 177.469,158.896 180.5,150.5C 178.495,145.489 174.828,142.822 169.5,142.5 Z M 224.5,142.5 C 222.897,143.596 221.397,144.93 220,146.5C 216.439,156.642 216.772,166.642 221,176.5C 227.908,180.864 232.908,179.197 236,171.5C 236.667,164.167 236.667,156.833 236,149.5C 233.9,144.525 230.067,142.192 224.5,142.5 Z M 282.5,142.5 C 276.453,144.254 274.286,148.254 276,154.5C 278.806,161.446 282.139,168.112 286,174.5C 292.443,181.148 297.943,180.315 302.5,172C 299.615,163.396 295.781,155.229 291,147.5C 289.009,144.42 286.175,142.754 282.5,142.5 Z"/></g>
<g><path style="opacity:0.994" fill="#020000" d="M 210.5,105.5 C 286.667,103.065 339.667,136.732 369.5,206.5C 370.025,207.192 370.692,207.692 371.5,208C 392.376,208.498 399.209,218.331 392,237.5C 389.407,240.543 386.24,242.71 382.5,244C 369.886,245.543 358.219,242.877 347.5,236C 341.988,230.411 335.321,227.244 327.5,226.5C 325.833,226.667 324.167,226.833 322.5,227C 313.398,232.436 304.065,237.436 294.5,242C 280.454,246.018 266.788,245.018 253.5,239C 248.187,235.698 242.854,232.365 237.5,229C 231.325,226.083 224.992,225.75 218.5,228C 198.245,244.829 175.912,248.163 151.5,238C 146.833,235 142.167,232 137.5,229C 132.734,226.69 127.734,226.023 122.5,227C 112.349,232.85 102.015,238.184 91.5,243C 83.381,245.229 75.381,244.896 67.5,242C 59.6558,235.779 57.4891,227.946 61,218.5C 65.0388,212.15 70.8722,208.65 78.5,208C 81.146,207.503 83.8127,207.336 86.5,207.5C 108.448,149.868 149.781,115.868 210.5,105.5 Z M 169.5,142.5 C 166.603,143.558 164.436,145.558 163,148.5C 158.725,155.993 155.225,163.827 152.5,172C 157.306,179.976 162.806,180.809 169,174.5C 173.635,166.896 177.469,158.896 180.5,150.5C 178.495,145.489 174.828,142.822 169.5,142.5 Z M 224.5,142.5 C 222.897,143.596 221.397,144.93 220,146.5C 216.439,156.642 216.772,166.642 221,176.5C 227.908,180.864 232.908,179.197 236,171.5C 236.667,164.167 236.667,156.833 236,149.5C 233.9,144.525 230.067,142.192 224.5,142.5 Z M 282.5,142.5 C 276.453,144.254 274.286,148.254 276,154.5C 278.806,161.446 282.139,168.112 286,174.5C 292.443,181.148 297.943,180.315 302.5,172C 299.615,163.396 295.781,155.229 291,147.5C 289.009,144.42 286.175,142.754 282.5,142.5 Z"/></g>
<g><path style="opacity:1" fill="#010000" d="M 125.5,246.5 C 131.065,248.284 136.065,251.117 140.5,255C 147.052,258.07 153.719,260.737 160.5,263C 172.549,263.891 184.549,263.557 196.5,262C 207.709,258.644 218.209,253.811 228,247.5C 238.235,253.867 249.069,259.034 260.5,263C 274.085,265.49 287.419,264.824 300.5,261C 309.815,257.009 318.815,252.509 327.5,247.5C 332.632,250.049 337.632,252.882 342.5,256C 349.239,257.68 355.239,260.68 360.5,265C 354.819,284.717 347.986,303.884 340,322.5C 337.559,324.969 334.726,326.802 331.5,328C 262.5,328.667 193.5,328.667 124.5,328C 118.873,327.043 115.04,323.876 113,318.5C 106.881,301.31 101.048,283.977 95.5,266.5C 95.3898,264.626 96.0564,263.126 97.5,262C 105.071,259.215 112.405,255.881 119.5,252C 121.996,250.669 123.996,248.836 125.5,246.5 Z"/></g>
</svg>
