<?xml version="1.0" standalone="no"?>
<!DOCTYPE svg PUBLIC "-//W3C//DTD SVG 20010904//EN"
 "http://www.w3.org/TR/2001/REC-SVG-20010904/DTD/svg10.dtd">
<svg version="1.0" xmlns="http://www.w3.org/2000/svg"
 width="48.000000pt" height="48.000000pt" viewBox="0 0 48.000000 48.000000"
 preserveAspectRatio="xMidYMid meet">

<g transform="translate(0.000000,48.000000) scale(0.100000,-0.100000)"
fill="#000000" stroke="none">
<path d="M25 389 c-16 -25 19 -29 221 -27 178 3 209 5 209 18 0 13 -31 15
-212 18 -147 2 -214 -1 -218 -9z"/>
<path d="M25 249 c-16 -25 19 -29 221 -27 178 3 209 5 209 18 0 13 -31 15
-212 18 -147 2 -214 -1 -218 -9z"/>
<path d="M25 109 c-16 -25 19 -29 221 -27 178 3 209 5 209 18 0 13 -31 15
-212 18 -147 2 -214 -1 -218 -9z"/>
</g>
</svg>
