<?xml version="1.0" standalone="no"?>
<!DOCTYPE svg PUBLIC "-//W3C//DTD SVG 20010904//EN"
 "http://www.w3.org/TR/2001/REC-SVG-20010904/DTD/svg10.dtd">
<svg version="1.0" xmlns="http://www.w3.org/2000/svg"
 width="24.000000pt" height="24.000000pt" viewBox="0 0 24.000000 24.000000"
 preserveAspectRatio="xMidYMid meet">

<g transform="translate(0.000000,24.000000) scale(0.100000,-0.100000)"
fill="#000000" stroke="none">
<path d="M10 120 c0 -82 2 -90 19 -90 11 0 22 6 25 13 5 10 7 10 12 0 8 -17
100 -17 108 0 5 9 7 9 12 0 3 -7 14 -13 25 -13 17 0 19 8 19 80 l0 80 -50 0
c-27 0 -50 5 -50 10 0 6 -27 10 -60 10 l-60 0 0 -90z m86 29 c10 -17 -13 -36
-27 -22 -12 12 -4 33 11 33 5 0 12 -5 16 -11z m104 -19 c0 -5 -13 -10 -30 -10
-16 0 -30 5 -30 10 0 6 14 10 30 10 17 0 30 -4 30 -10z m-96 -26 c29 -11 16
-24 -24 -24 -38 0 -54 13 -27 23 18 8 33 8 51 1z m96 -14 c0 -5 -13 -10 -30
-10 -16 0 -30 5 -30 10 0 6 14 10 30 10 17 0 30 -4 30 -10z"/>
</g>
</svg>
