<?xml version="1.0" standalone="no"?>
<!DOCTYPE svg PUBLIC "-//W3C//DTD SVG 20010904//EN"
 "http://www.w3.org/TR/2001/REC-SVG-20010904/DTD/svg10.dtd">
<svg version="1.0" xmlns="http://www.w3.org/2000/svg"
 width="255.000000pt" height="225.000000pt" viewBox="0 0 255.000000 225.000000"
 preserveAspectRatio="xMidYMid meet">

<g transform="translate(0.000000,225.000000) scale(0.100000,-0.100000)"
fill="#000000" stroke="none">
<path d="M685 2240 c-318 -50 -569 -270 -657 -576 -19 -66 -23 -103 -23 -229
0 -213 37 -359 137 -542 43 -80 163 -239 202 -271 14 -11 26 -23 26 -26 0 -4
-15 -29 -34 -56 -51 -74 -69 -139 -64 -225 6 -88 35 -152 96 -213 103 -104
259 -128 392 -62 39 20 114 96 179 183 l44 58 91 -8 c117 -10 286 -10 401 0
l90 8 70 -93 c105 -139 181 -182 320 -183 84 0 159 32 225 96 65 63 95 137 95
234 0 70 -4 88 -33 145 -18 36 -40 77 -49 92 l-17 26 62 66 c161 172 260 379
298 621 30 194 4 368 -79 535 -34 70 -60 103 -142 186 -90 90 -111 106 -205
151 -139 68 -215 86 -365 87 -148 1 -250 -24 -380 -93 l-89 -46 -100 50 c-56
28 -135 58 -177 68 -93 22 -233 29 -314 17z m295 -240 c75 -22 130 -55 222
-133 104 -88 141 -101 198 -72 41 21 64 68 56 116 -6 37 -4 39 32 58 72 37
153 54 253 54 249 -1 450 -137 545 -368 27 -66 29 -78 29 -215 0 -131 -3 -154
-29 -235 -62 -197 -170 -363 -313 -476 -42 -34 -83 -63 -90 -66 -22 -9 -15
-28 33 -94 111 -149 134 -189 134 -227 0 -66 -43 -111 -107 -112 -56 0 -80 22
-191 176 -48 67 -174 242 -281 388 -185 254 -195 266 -212 249 -28 -30 -222
-303 -218 -308 3 -2 51 -9 109 -15 57 -5 107 -14 111 -18 24 -26 139 -195 139
-202 0 -6 -59 -10 -142 -10 -131 0 -242 15 -344 45 -19 6 -36 -13 -125 -135
-56 -78 -112 -148 -123 -156 -30 -21 -98 -18 -129 6 -39 31 -52 80 -33 125 9
20 91 139 183 266 437 597 439 601 464 727 31 162 -42 321 -181 392 -193 98
-423 7 -500 -197 -19 -50 -21 -72 -17 -153 8 -147 55 -273 149 -397 25 -33 37
-57 32 -65 -29 -49 -119 -158 -129 -158 -35 0 -171 198 -215 312 -86 223 -88
437 -5 606 41 81 142 192 216 235 138 81 320 103 479 57z m-84 -464 c31 -31
34 -39 34 -92 0 -35 -8 -75 -19 -99 -19 -42 -116 -178 -131 -183 -14 -5 -57
67 -80 132 -13 39 -20 85 -20 134 0 71 1 75 34 108 31 31 40 34 91 34 51 0 60
-3 91 -34z"/>
<path d="M1648 1785 c-107 -29 -201 -113 -238 -211 -42 -114 -20 -274 53 -385
71 -107 261 -359 272 -359 6 0 47 29 92 64 167 132 266 331 267 536 1 104 -12
149 -65 226 -77 112 -242 168 -381 129z m188 -250 l37 -35 -5 -83 c-4 -62 -13
-102 -37 -159 -18 -42 -39 -82 -47 -89 -19 -15 -23 -11 -97 93 -89 124 -99
218 -31 277 30 26 43 31 89 31 48 0 58 -4 91 -35z"/>
</g>
</svg>
